<?xml version="1.0" encoding="iso-8859-1"?>
<!-- Generator: Adobe Illustrator 18.1.1, SVG Export Plug-In . SVG Version: 6.00 Build 0)  -->
<svg version="1.1" id="Capa_1" xmlns="http://www.w3.org/2000/svg" xmlns:xlink="http://www.w3.org/1999/xlink" x="0px" y="0px"
	 viewBox="0 0 55.625 55.625" style="enable-background:new 0 0 55.625 55.625;" xml:space="preserve">
<g>
	<path style="fill:#010002;" d="M50.274,17.877c0-0.001,0-0.002,0-0.004c-0.034-0.17-0.097-0.33-0.173-0.484
		c-0.019-0.04-0.04-0.077-0.061-0.115c-0.087-0.152-0.188-0.298-0.313-0.424L33.463,0.586c-0.126-0.126-0.271-0.227-0.424-0.313
		c-0.038-0.021-0.074-0.042-0.113-0.061C32.654,0.079,32.357,0,32.049,0H7.312c-1.104,0-2,0.896-2,2v51.625c0,1.105,0.896,2,2,2h41
		c1.104,0,2-0.895,2-2V18.264C50.312,18.133,50.299,18.004,50.274,17.877z M43.483,16.264h-9.435V6.828l4.718,4.718L43.483,16.264z
		 M9.312,51.625V4h20.736v14.264c0,1.104,0.896,2,2,2h14.264v31.361H9.312z"/>
</g>
<g>
</g>
<g>
</g>
<g>
</g>
<g>
</g>
<g>
</g>
<g>
</g>
<g>
</g>
<g>
</g>
<g>
</g>
<g>
</g>
<g>
</g>
<g>
</g>
<g>
</g>
<g>
</g>
<g>
</g>
</svg>
